<svg id="圖層_1" data-name="圖層 1" xmlns="http://www.w3.org/2000/svg" viewBox="0 0 353.37 165.21"><defs><style>.cls-1{fill:#37ae48;}.cls-2{fill:#23a8dc;}.cls-3{fill:#878887;}.cls-4{fill:#b3b3b4;}.cls-5{fill:#717071;}.cls-6{fill:#fff;}</style></defs><title>工作區域 1</title><path class="cls-1" d="M218.78,6.81a.89.89,0,0,0-.89-.9H133.33a.89.89,0,0,0-.89.9v27a.89.89,0,0,0,.89.89h38.1L172.78,37l2,3.54a.91.91,0,0,0,1.58,0l2-3.54,1.34-2.33h38.1a.89.89,0,0,0,.89-.89Z"/><rect class="cls-2" x="188.83" y="52.92" width="26.6" height="17.16" rx="8.2" ry="8.2"/><path class="cls-3" d="M109.45,53.67H84.37a9.85,9.85,0,0,0-9.84,9.84h0a9.85,9.85,0,0,0,9.84,9.84h25.08a9.85,9.85,0,0,0,9.84-9.84h0A9.85,9.85,0,0,0,109.45,53.67Z"/><path class="cls-3" d="M108.77,92.22H83.69a9.85,9.85,0,0,0-9.84,9.84h0a9.84,9.84,0,0,0,9.84,9.84h25.08a9.84,9.84,0,0,0,9.84-9.84h0A9.85,9.85,0,0,0,108.77,92.22Z"/><path class="cls-3" d="M165.35,92.22H140.27a9.84,9.84,0,0,0-9.84,9.84h0a9.83,9.83,0,0,0,9.84,9.84h25.08a9.83,9.83,0,0,0,9.83-9.84h0A9.84,9.84,0,0,0,165.35,92.22Z"/><path class="cls-3" d="M220.87,75.56H195.79A9.84,9.84,0,0,0,186,85.4h0a9.84,9.84,0,0,0,9.83,9.84h25.08a9.84,9.84,0,0,0,9.84-9.84h0A9.84,9.84,0,0,0,220.87,75.56Z"/><rect class="cls-1" x="172.34" y="51.79" width="6.17" height="6.17"/><path class="cls-4" d="M246.34,51.79H52.74a1.87,1.87,0,1,1,0-3.73h193.6a1.87,1.87,0,0,1,0,3.73Z"/><path class="cls-4" d="M282.41,117.32H52.65a1.87,1.87,0,0,1,0-3.73H282.41a1.87,1.87,0,0,1,0,3.73Z"/><path class="cls-4" d="M180.37,142.32a1.86,1.86,0,0,1-1.86-1.86V42.26a1.87,1.87,0,1,1,3.73,0v98.2A1.87,1.87,0,0,1,180.37,142.32Z"/><path class="cls-4" d="M124.76,142.32a1.86,1.86,0,0,1-1.86-1.86V42.26a1.87,1.87,0,1,1,3.73,0v98.2A1.87,1.87,0,0,1,124.76,142.32Z"/><path class="cls-4" d="M69.05,142.32a1.86,1.86,0,0,1-1.86-1.86V42.26a1.87,1.87,0,1,1,3.73,0v98.2A1.87,1.87,0,0,1,69.05,142.32Z"/><path class="cls-3" d="M35.34,56.33H10.64a6.41,6.41,0,0,1,0-12.81h24.7a6.41,6.41,0,1,1,0,12.81ZM10.64,44a5.95,5.95,0,0,0,0,11.89h24.7a5.95,5.95,0,1,0,0-11.89Z"/><path class="cls-3" d="M13,46.74a9,9,0,0,0-.49-1.07l.73-.11c.15.35.3.74.45,1.18h3.85v.65H13.72v1.23h3.06V52a.76.76,0,0,1-.86.86H15l-.17-.65.9,0a.35.35,0,0,0,.39-.4V49.27H13.72v5H13v-5H10.75V53h-.67V48.62H13V47.39H9.2v-.65Z"/><path class="cls-3" d="M23,46.5v.66H21.52v2H22.6v.65H21.52v2.47l1.4-.45v.63a34.69,34.69,0,0,1-4.05,1.15L18.69,53l.64-.13V48.46H20v4.27l.91-.24V47.16H19V46.5Zm2.4,5.38a6.11,6.11,0,0,0,2.08,1.85l-.39.56A5.88,5.88,0,0,1,25,52.43a7,7,0,0,1-2.5,1.86l-.41-.55a6.34,6.34,0,0,0,2.53-1.89,10,10,0,0,1-1-2.48,10.61,10.61,0,0,1-.67,1.21l-.39-.51A11.5,11.5,0,0,0,24,45.62l.67.07c-.09.52-.19,1-.3,1.49h2.87v.66H26.5A7.71,7.71,0,0,1,25.36,51.88ZM23.6,49.26l.45-.24A9.8,9.8,0,0,0,25,51.27a7.22,7.22,0,0,0,.87-3.43H24.15A10.76,10.76,0,0,1,23.6,49.26Z"/><path class="cls-3" d="M31.73,46v3h-.94v1.52h1v.63h-1V52.9c.42-.13.82-.27,1.2-.41v.68a28.27,28.27,0,0,1-3.44,1l-.19-.66.5-.12V50h.6v3.26l.7-.17V49H28.83V46Zm-.65.62H29.49v1.72h1.59Zm3.08-.89c-.07.23-.16.46-.25.68h2.34v.5A6.28,6.28,0,0,1,34.84,49a6.76,6.76,0,0,0,2.25,1.17l-.38.56a6.51,6.51,0,0,1-2.35-1.3,9.46,9.46,0,0,1-2.28,1.34l-.4-.55A9.05,9.05,0,0,0,33.9,49,6.27,6.27,0,0,1,33,47.8a5.54,5.54,0,0,1-.82.78l-.4-.53a4.82,4.82,0,0,0,1.69-2.42Zm2.07,8.5h-.65v-.41H33.2v.41h-.65V50.77h3.68Zm-.65-1V51.38H33.2v1.85Zm-1.21-4.64a6.05,6.05,0,0,0,1.16-1.54H33.59c-.06.07-.1.16-.16.23A5.21,5.21,0,0,0,34.37,48.59Z"/><path class="cls-3" d="M81.4,165.2H56.7a6.41,6.41,0,0,1,0-12.81H81.4a6.41,6.41,0,1,1,0,12.81ZM56.7,152.85a5.95,5.95,0,0,0,0,11.89H81.4a5.95,5.95,0,0,0,0-11.89Z"/><path class="cls-3" d="M59.66,155.64a6.79,6.79,0,0,0-.94-1.41l.68-.25a8.08,8.08,0,0,1,1,1.66H64v.68H62.51a9.64,9.64,0,0,1-2.08,3.74,12.38,12.38,0,0,0,3.76,2.1l-.37.56A12.47,12.47,0,0,1,60,160.54a9.87,9.87,0,0,1-4,2.17l-.35-.59a9.27,9.27,0,0,0,3.9-2,8.67,8.67,0,0,1-2.28-3.79H55.76v-.68Zm.3,4a8.43,8.43,0,0,0,1.84-3.31H57.88A7.86,7.86,0,0,0,60,159.63Z"/><path class="cls-3" d="M66.91,157.16a18.4,18.4,0,0,1-1.13,4.18L65.2,161A17.69,17.69,0,0,0,66.26,157Zm1.72,5.22a.86.86,0,0,1-1-1V156h.68v5.26c0,.28.17.43.51.43h1.77a.5.5,0,0,0,.48-.28,6.65,6.65,0,0,0,.25-2l.64.21a6.07,6.07,0,0,1-.41,2.36,1,1,0,0,1-.83.36Zm2.3-5.89-.56.38a18.65,18.65,0,0,0-2-2.44l.57-.34A19.17,19.17,0,0,1,70.93,156.49Zm3,4.15-.62.28a28.94,28.94,0,0,0-1.61-4l.66-.22A30.36,30.36,0,0,1,73.9,160.64Z"/><path class="cls-3" d="M78.24,154.42v3h-.95v1.52h1v.64h-1v1.75c.42-.13.82-.26,1.2-.4v.67a28.27,28.27,0,0,1-3.44,1l-.19-.66.5-.11v-3.42H76v3.27l.69-.18v-4.1H75.33v-3Zm-.65.63H76v1.71h1.6Zm3.08-.9c-.08.24-.16.46-.26.69h2.34v.49a6,6,0,0,1-1.41,2.09,6.83,6.83,0,0,0,2.26,1.18l-.39.55a6.37,6.37,0,0,1-2.35-1.3,9.46,9.46,0,0,1-2.28,1.34l-.4-.55a8.57,8.57,0,0,0,2.22-1.25,5.75,5.75,0,0,1-.85-1.19,7.61,7.61,0,0,1-.82.78l-.41-.54A4.92,4.92,0,0,0,80,154Zm2.06,8.51h-.65v-.42H79.71v.42h-.65v-3.5h3.67Zm-.65-1v-1.84H79.71v1.84ZM80.87,157A5.93,5.93,0,0,0,82,155.44H80.09l-.16.24A5.67,5.67,0,0,0,80.87,157Z"/><path class="cls-3" d="M137.11,165.2h-24.7a6.41,6.41,0,0,1,0-12.81h24.7a6.41,6.41,0,1,1,0,12.81Zm-24.7-12.35a5.95,5.95,0,0,0,0,11.89h24.7a5.95,5.95,0,1,0,0-11.89Z"/><path class="cls-3" d="M112.42,160.62a6.81,6.81,0,0,1-1,2.07l-.56-.36a5.81,5.81,0,0,0,.91-1.83ZM114.8,155v-.63h.67V155h3.84v.58h-3.84v.54h3v2.73H118a11.69,11.69,0,0,1,1.27,1.24l-.5.34c-.15-.19-.33-.39-.53-.6-1.6.12-3.94.22-7,.29l-.08-.6,3.61-.06v-.61h-3v-2.73h3v-.54H111V155Zm0,2.25v-.61h-2.34v.61Zm0,.46h-2.34v.63h2.34Zm-.86,5.17c-.56,0-.83-.27-.83-.8v-1.65h.66v1.51c0,.21.12.31.37.31h2.16a.47.47,0,0,0,.38-.13,1.92,1.92,0,0,0,.2-.9l.62.2a2.21,2.21,0,0,1-.36,1.26,1.07,1.07,0,0,1-.72.2Zm2.3-1.48-.51.35a10.4,10.4,0,0,0-1.11-1.19l.5-.31A9.69,9.69,0,0,1,116.24,161.39Zm-.77-4.15h2.34v-.61h-2.34Zm2.34.46h-2.34v.63h2.34ZM117.4,159l.23-.14h-2.16v.59l2.31-.09Zm2,3.17-.54.36a13.47,13.47,0,0,0-1.41-1.88l.51-.33A15.59,15.59,0,0,1,119.41,162.15Z"/><path class="cls-3" d="M125.14,154.34V156h3.38v4.42h-.68v-.59h-2.7v3.21h-.7v-3.21h-2.69v.59h-.68V156h3.37v-1.7Zm-.7,4.87v-2.52h-2.69v2.52Zm3.4,0v-2.52h-2.7v2.52Z"/><path class="cls-3" d="M133.5,154.75v3h-.94v1.52h1v.64h-1v1.75c.41-.13.82-.26,1.19-.4v.67a28.27,28.27,0,0,1-3.44,1l-.18-.66.5-.11v-3.42h.6V162l.7-.18v-4.1H130.6v-3Zm-.65.63h-1.59v1.71h1.59Zm3.08-.9c-.08.24-.16.46-.26.69H138v.49a6.15,6.15,0,0,1-1.4,2.09,6.68,6.68,0,0,0,2.25,1.18l-.39.55a6.32,6.32,0,0,1-2.34-1.3,9.65,9.65,0,0,1-2.28,1.34l-.41-.55a8.81,8.81,0,0,0,2.23-1.25,5.61,5.61,0,0,1-.86-1.2,6.82,6.82,0,0,1-.82.79l-.41-.54a4.85,4.85,0,0,0,1.7-2.41ZM138,163h-.65v-.42H135V163h-.65v-3.5H138Zm-.65-1v-1.84H135V162Zm-1.2-4.63a6.16,6.16,0,0,0,1.16-1.55h-2l-.15.24A5.14,5.14,0,0,0,136.14,157.32Z"/><path class="cls-3" d="M192.72,165.2H168a6.41,6.41,0,1,1,0-12.81h24.7a6.41,6.41,0,1,1,0,12.81ZM168,152.85a5.95,5.95,0,0,0,0,11.89h24.7a5.95,5.95,0,0,0,0-11.89Z"/><path class="cls-3" d="M167.91,160.75a6.42,6.42,0,0,1-1,2.06l-.56-.36a5.71,5.71,0,0,0,.91-1.83Zm2.38-5.64v-.63H171v.63h3.83v.59H171v.53h3V159h-.44a11.7,11.7,0,0,1,1.27,1.24l-.5.35c-.15-.2-.33-.4-.52-.61q-2.41.18-7,.3l-.09-.61c1.32,0,2.52,0,3.61-.06V159h-3v-2.73h3v-.53h-3.83v-.59Zm0,2.25v-.61H168v.61Zm0,.47H168v.63h2.34Zm-.86,5.16c-.55,0-.83-.27-.83-.79v-1.65h.66v1.51c0,.2.12.31.37.31h2.17a.44.44,0,0,0,.37-.14,1.8,1.8,0,0,0,.2-.9l.62.2a2.1,2.1,0,0,1-.36,1.26,1.06,1.06,0,0,1-.71.2Zm2.3-1.48-.51.36a8.92,8.92,0,0,0-1.11-1.2l.51-.31A9.5,9.5,0,0,1,171.73,161.51Zm-.76-4.15h2.33v-.61H171Zm2.33.47H171v.63h2.33Zm-.41,1.28.23-.15H171v.59l2.31-.09Zm2,3.16-.53.36a13.81,13.81,0,0,0-1.42-1.87l.51-.33A13.12,13.12,0,0,1,174.9,162.27Z"/><path class="cls-3" d="M179.94,156.18h-3.46v-.65h3.46v-1h.69v1h3.47v.65h-3.47v2.62a10.15,10.15,0,0,0,4,3.26l-.37.64a11.08,11.08,0,0,1-3.59-2.91v3.32h-.69v-3.29a10.7,10.7,0,0,1-3.56,2.9l-.35-.6a10.2,10.2,0,0,0,3.91-3.28Zm-3.19,3.52-.42-.52a4.84,4.84,0,0,0,1.65-2.66l.63.11a7.29,7.29,0,0,1-.49,1.34,6.88,6.88,0,0,1,1.24.87l-.35.57a7.21,7.21,0,0,0-1.19-.92A5,5,0,0,1,176.75,159.7Zm4.91-.26-.41-.53a4.37,4.37,0,0,0,1.38-2.38l.64.12a6.47,6.47,0,0,1-.44,1.24,7.84,7.84,0,0,1,1.42,1.06l-.37.57a8.07,8.07,0,0,0-1.35-1.09A5,5,0,0,1,181.66,159.44Z"/><path class="cls-3" d="M189,154.88v3h-.94v1.52h1V160h-1v1.75c.42-.13.82-.26,1.2-.4V162a30.3,30.3,0,0,1-3.44,1l-.19-.65.5-.12v-3.42h.6v3.27c.24-.05.47-.12.7-.18v-4.1h-1.33v-3Zm-.65.62h-1.59v1.71h1.59Zm3.08-.9c-.07.24-.16.46-.25.69h2.33v.49a6.15,6.15,0,0,1-1.4,2.09,6.6,6.6,0,0,0,2.25,1.18l-.38.56a6.58,6.58,0,0,1-2.35-1.3,9.44,9.44,0,0,1-2.28,1.33l-.4-.54a9.07,9.07,0,0,0,2.22-1.26,5.91,5.91,0,0,1-.86-1.19,6.08,6.08,0,0,1-.82.78l-.4-.54a4.83,4.83,0,0,0,1.69-2.41Zm2.07,8.51h-.65v-.41h-2.38v.41h-.65v-3.5h3.68Zm-.65-1v-1.84h-2.38v1.84Zm-1.21-4.63a5.93,5.93,0,0,0,1.16-1.55h-1.94l-.16.24A5.14,5.14,0,0,0,191.63,157.44Z"/><path class="cls-5" d="M347.45,121.36h-39a5.9,5.9,0,0,1,0-11.8h39a5.9,5.9,0,1,1,0,11.8Zm-39-11.37a5.47,5.47,0,0,0,0,10.94h39a5.47,5.47,0,1,0,0-10.94Z"/><path class="cls-5" d="M310.06,111.45V113h3.12v4.07h-.63v-.54h-2.49v3h-.64v-3h-2.48v.54h-.62V113h3.1v-1.56Zm-.64,4.48v-2.31h-2.48v2.31Zm3.13,0v-2.31h-2.49v2.31Z"/><path class="cls-5" d="M316.61,115l-.43.44a8.61,8.61,0,0,0-1.44-1.26l.43-.42A8.72,8.72,0,0,1,316.61,115Zm0,1.52a24.34,24.34,0,0,1-1.16,2.86l-.62-.26a24.93,24.93,0,0,0,1.21-2.82Zm.28-3.6-.44.44a9.46,9.46,0,0,0-1.54-1.32l.45-.42A10.91,10.91,0,0,1,316.88,113Zm1.46-.53v-.92H319v.92h1.45v-.92H321v.92h1.1V113H321v1h1.38v.58H321a3.6,3.6,0,0,0,1.69,1.42l-.26.54a5.42,5.42,0,0,1-1.2-.85v1.81h-2.64v.83c0,.23.12.34.38.35h2.33a.38.38,0,0,0,.35-.21,2.38,2.38,0,0,0,.14-.79l.59.19a4.09,4.09,0,0,1-.17.94.74.74,0,0,1-.73.44h-2.74c-.52,0-.77-.24-.77-.7V116a6.15,6.15,0,0,1-1,.76l-.32-.52a4.29,4.29,0,0,0,1.75-1.63H317V114h1.36v-1h-1v-.56Zm2.7,3.12a4.57,4.57,0,0,1-.67-1h-1.44a4.06,4.06,0,0,1-.57,1Zm-.42,1.43v-.9h-2.06v.9Zm-.22-3v-1H319v1Z"/><path class="cls-5" d="M329.55,115.25a8.12,8.12,0,0,1-1.51,2.06,10,10,0,0,0,3.42,1.53l-.39.58a10.16,10.16,0,0,1-3.51-1.69,9.15,9.15,0,0,1-3.54,1.72l-.38-.57a9.56,9.56,0,0,0,3.42-1.56,7.57,7.57,0,0,1-1.57-2l.54-.3a6.53,6.53,0,0,0,1.5,1.85A6.85,6.85,0,0,0,329,115Zm-2.28-2.74a6.87,6.87,0,0,0-.52-1l.7-.12c.17.33.34.7.5,1.09h3.41v.6h-7.67v-.6Zm-.72,1.27a9.94,9.94,0,0,1-2.44,2.25l-.4-.52a9.83,9.83,0,0,0,2.39-2.13Zm4.76,1.87-.46.46a15.57,15.57,0,0,0-2.38-2.33l.42-.41A17.36,17.36,0,0,1,331.31,115.65Z"/><path class="cls-5" d="M334.4,115l-.44.44a9.23,9.23,0,0,0-1.41-1.33l.44-.42A9.51,9.51,0,0,1,334.4,115Zm.05,1.21a30,30,0,0,1-1.17,3.13l-.58-.25a26.38,26.38,0,0,0,1.21-3.09Zm.13-3.43-.44.44a9.49,9.49,0,0,0-1.39-1.18l.44-.42A9.37,9.37,0,0,1,334.58,112.75Zm1.46,2.73a8.33,8.33,0,0,1-.35,2.51,3.39,3.39,0,0,1-1,1.43l-.4-.49a2.89,2.89,0,0,0,.89-1.21,8.18,8.18,0,0,0,.29-2.24Zm-1.16-.9.12,0a5,5,0,0,0,1.29-1.61h-1.47v-.57h2.42a6.28,6.28,0,0,0-.38-.82l.64-.11c.12.28.24.58.36.93h2.28v.57h-3.2a8.09,8.09,0,0,1-1.1,1.6c1,0,2-.14,3-.25l-.62-.79.5-.31a16.65,16.65,0,0,1,1.45,1.92l-.52.36c-.13-.22-.28-.45-.44-.68-1.3.14-2.69.25-4.2.34Zm2.7.91v3.77h-.64v-3.77Zm1.05,3v-3h.59v2.9c0,.2.08.31.25.31h.92v.57h-1.11C338.84,119.26,338.63,119,338.63,118.45Z"/><path class="cls-5" d="M343.45,113.65v.49a12.4,12.4,0,0,1-1.06,1.5h1.16v.41a8.57,8.57,0,0,1-.46,1.73l.22.18a3.19,3.19,0,0,0,.85.59,3.68,3.68,0,0,0,1.19.18H347c.59,0,1.34,0,2.28,0l-.14.59h-2.06c-.66,0-1.25,0-1.77,0a4.17,4.17,0,0,1-1.38-.23,2.86,2.86,0,0,1-1-.69.35.35,0,0,0-.22-.09c-.22,0-.52.38-.92,1.16l-.46-.41c.41-.78.8-1.22,1.17-1.33a7.19,7.19,0,0,0,.45-1.52h-1.31v-.47a10.7,10.7,0,0,0,1.11-1.47h-1.31v-.57Zm0-.84-.4.41a9.29,9.29,0,0,0-1.34-1.26l.41-.39A10.1,10.1,0,0,1,343.41,112.81Zm1.86-.32a4.22,4.22,0,0,0-.55-.8l.59-.22a6.09,6.09,0,0,1,.59,1H347a7.49,7.49,0,0,0,.63-1l.59.2a5.92,5.92,0,0,1-.55.85h1.49v.56h-2.47a5.78,5.78,0,0,1-.24.7h2.06V118h-4v-4.24h1.27a3.58,3.58,0,0,0,.23-.7h-2.19v-.56Zm2.66,2.52v-.71H345.1V115Zm0,1.21v-.71H345.1v.71Zm0,.49H345.1v.73h2.83Z"/><path class="cls-3" d="M39.68,121.87H6.3a6.41,6.41,0,0,1,0-12.82H39.68a6.41,6.41,0,1,1,0,12.82ZM6.3,109.52a5.94,5.94,0,0,0,0,11.88H39.68a5.94,5.94,0,1,0,0-11.88Z"/><path class="cls-3" d="M4.21,114c.83-.28,1.85-1.33,3.08-3.13l.69.24A13.83,13.83,0,0,1,5.43,114c1.81-.07,3.52-.2,5.15-.35-.36-.5-.73-1-1.11-1.42l.62-.29a24.12,24.12,0,0,1,2.26,3.13l-.66.32c-.24-.4-.47-.77-.7-1.12-2,.18-4.2.31-6.65.4Zm7.09,5.54h-.69v-.47H5.7v.47H5v-3.93H11.3Zm-.69-1.12v-2.16H5.7v2.16Z"/><path class="cls-3" d="M15.46,114.67l-.45.44a8.15,8.15,0,0,0-1.45-1.4l.45-.42A11.39,11.39,0,0,1,15.46,114.67Zm.12,1.42a33.16,33.16,0,0,1-1.37,3.36l-.62-.27A26.09,26.09,0,0,0,15,115.86Zm-.08-3.7-.45.45a8.8,8.8,0,0,0-1.37-1.36l.44-.43A11.84,11.84,0,0,1,15.5,112.39Zm.67,1.78a6.84,6.84,0,0,1-.2,1.13l-.42-.15a6,6,0,0,0,.25-1.07Zm1.59-.32-.42.11-.07-.31c-.47.1-1,.18-1.58.26l-.08-.41c.2-.06.5-.38.89-1l-.78.09-.09-.37a3.6,3.6,0,0,0,.77-1.31l.46.13a3.92,3.92,0,0,1-.71,1.13l.62-.06.33-.54.45.16a11.76,11.76,0,0,1-1.2,1.66l.79-.15a4.09,4.09,0,0,0-.18-.49l.4-.12A8.26,8.26,0,0,1,17.76,113.85Zm-.9,3.84h4.79a3.28,3.28,0,0,1-.22,1.52c-.15.23-.47.35-1,.36s-.82,0-1.21,0l-.15-.54,1.26,0q.45,0,.57-.18a1.61,1.61,0,0,0,.1-.63H16.18l.23-1.62h4.32V116H16.32v-.5h5v1.61H17ZM17,115.2l-.43.06c0-.48,0-.84-.07-1.11l.36,0A5.27,5.27,0,0,1,17,115.2Zm.8-.23-.39.14a9.62,9.62,0,0,0-.24-1l.35-.1C17.59,114.39,17.68,114.69,17.75,115Zm.73-3.47a3.14,3.14,0,0,0-.19-.52l.58-.1c.06.19.12.39.18.62h.82V112H17.69v-.45Zm1.19,2.27v1.36H17.9v-1.36Zm-.06-1.46v.39H18v-.39Zm0,.72v.39H18V113Zm-.38,1.1h-.87v.62h.87Zm2.84-.32-.42.1c0-.1-.05-.18-.07-.26-.47.07-1,.15-1.61.22l-.09-.4a2.89,2.89,0,0,0,.93-.94l-.76.08-.1-.37a3.4,3.4,0,0,0,.77-1.28l.47.13a4.26,4.26,0,0,1-.71,1.1c.21,0,.41,0,.62-.06l.35-.52.45.16a10.65,10.65,0,0,1-1.27,1.63l.83-.14c-.07-.2-.13-.39-.21-.57l.4-.12A10.51,10.51,0,0,1,22.06,113.81Zm-1.57.34a9.36,9.36,0,0,1-.18,1.12l-.42-.15a5,5,0,0,0,.22-1.06Zm.79,1-.43.06a8.16,8.16,0,0,0-.1-1.1l.37,0A5.81,5.81,0,0,1,21.28,115.17Zm.81-.24-.38.13c-.08-.33-.18-.65-.29-1l.35-.11A8.18,8.18,0,0,1,22.09,114.93Z"/><path class="cls-3" d="M27,113.4a15.46,15.46,0,0,0,.12-1.7v-.77h.7v.61a15.44,15.44,0,0,1-.12,1.86h3.91v.66H27.89A8.48,8.48,0,0,0,31.78,119l-.42.54a8.91,8.91,0,0,1-3.9-4.93,7.43,7.43,0,0,1-3.89,5l-.42-.57a6.79,6.79,0,0,0,3.74-5H23.33v-.66Z"/><path class="cls-3" d="M35.11,113.28v.53A12.58,12.58,0,0,1,34,115.43h1.27v.46a10.53,10.53,0,0,1-.51,1.87c.07.06.16.12.24.2a3.49,3.49,0,0,0,.92.64,4,4,0,0,0,1.3.2H39c.64,0,1.46,0,2.47,0l-.15.65H39.06q-1.1,0-1.92,0a4.49,4.49,0,0,1-1.5-.24,3.17,3.17,0,0,1-1.08-.76.4.4,0,0,0-.24-.09c-.23,0-.56.41-1,1.25l-.5-.44c.45-.85.87-1.33,1.27-1.44a7.84,7.84,0,0,0,.49-1.65H33.16v-.52a11.64,11.64,0,0,0,1.2-1.59H33v-.62Zm0-.92-.44.45a10.31,10.31,0,0,0-1.45-1.37l.44-.42A10.63,10.63,0,0,1,35.07,112.36Zm2-.34a4.6,4.6,0,0,0-.59-.87l.63-.24a6.37,6.37,0,0,1,.65,1.11H39a7.79,7.79,0,0,0,.68-1.14l.64.21a6.14,6.14,0,0,1-.59.93h1.62v.61H38.64a6.06,6.06,0,0,1-.27.75h2.24V118H36.27v-4.61h1.39a4.13,4.13,0,0,0,.25-.75H35.53V112ZM40,114.76V114H36.9v.78Zm0,1.31v-.78H36.9v.78Zm0,.53H36.9v.8H40Z"/><path class="cls-6" d="M195.19,82.18v-.45h3.89v.45h-.47v3.14h.66v.45h-.65v3.07a.59.59,0,0,1-.68.66h-.87l-.09-.44c.28,0,.55,0,.81,0a.34.34,0,0,0,.38-.37v-3H195v-.45h3.13V82.18Zm2.26.75v1.62h-2.07V82.93Zm0,3.58V88.2h-2.09V86.51ZM197,83.26H195.8v1H197Zm0,3.59h-1.25v1h1.25Zm4-2.79a15.79,15.79,0,0,1-.07,1.61,6.91,6.91,0,0,0,2.11,3.47l-.33.38a7.47,7.47,0,0,1-1.91-2.94l-.09.4a4.44,4.44,0,0,1-1.74,2.56l-.31-.38a4.14,4.14,0,0,0,1.58-2.22,11.56,11.56,0,0,0,.3-2.88Zm-.74-2.66c-.06.44-.11.85-.18,1.23h2.57V83a23.36,23.36,0,0,1-.5,2.38l-.46-.12a14.27,14.27,0,0,0,.49-2.11h-2.21a6.28,6.28,0,0,1-.81,2l-.39-.28a8.19,8.19,0,0,0,1-3.47Z"/><path class="cls-6" d="M207,81.29v.44h1.89v.4H207v.56h2.3v.21a7.6,7.6,0,0,1-.3,1.16l-.41-.11a4.84,4.84,0,0,0,.26-.86H207v.62l1.2-.09,0,.3L207,84v.35c0,.12.07.19.22.19h1.89v.33h-2c-.4,0-.59-.15-.59-.45v-.32l-1,.1-.05-.35,1.06-.11v-.68h-1.31V86a8.28,8.28,0,0,1-.72,3.55l-.36-.33a7.8,7.8,0,0,0,.62-3.19V82.69h1.78v-1.4Zm2.19,4.07v.37h-1.37a2.8,2.8,0,0,1-.43.41,2.29,2.29,0,0,1,.57.71.42.42,0,0,1,0,.12,5.16,5.16,0,0,0,1-.77l.26.33a5.38,5.38,0,0,1-1.14.79,14.84,14.84,0,0,1,1.43,1.16l-.25.38a15.09,15.09,0,0,0-1.14-1.09,2.46,2.46,0,0,1,0,.28,2.22,2.22,0,0,1-.23,1.26,1.28,1.28,0,0,1-.86.23h-.36l-.13-.41h.56a.72.72,0,0,0,.44-.12,2.06,2.06,0,0,0,.14-1s0-.1,0-.14a7,7,0,0,1-2.17,1.29l-.24-.34a6.56,6.56,0,0,0,2.38-1.36,2,2,0,0,0-.16-.51,0,0,0,0,1,0,0A5.43,5.43,0,0,1,205.71,88l-.22-.32a5.64,5.64,0,0,0,1.9-1,1.72,1.72,0,0,0-.34-.32,6.53,6.53,0,0,1-1.27.58l-.2-.34a4.53,4.53,0,0,0,1.82-.9h-1.71v-.37Zm1.17-3.24v5.64h-.46V82.12Zm-.34,7.35L210,89l1.07,0c.27,0,.41-.13.41-.39V81.34h.49v7.44a.63.63,0,0,1-.72.69Z"/><path class="cls-6" d="M216.24,81.7v.4c-.25.85-.55,1.72-.9,2.62a4.31,4.31,0,0,1,.84,2.13,1.15,1.15,0,0,1-.27.84,2,2,0,0,1-1.27.34l-.16-.5.27,0a1.58,1.58,0,0,0,.76-.19.64.64,0,0,0,.19-.52,3.59,3.59,0,0,0-.84-2.06,25.21,25.21,0,0,0,.88-2.62h-1.53v7.36h-.48V81.7Zm5.19,3.78V86h-1.56v2.63c0,.24.1.36.31.36h.45a.49.49,0,0,0,.32-.09c.13-.09.2-.5.22-1.23l.46.15a3.17,3.17,0,0,1-.28,1.41.82.82,0,0,1-.62.2H220a.62.62,0,0,1-.48-.18.8.8,0,0,1-.17-.51V86h-1a5.1,5.1,0,0,1-.49,2.17,3.73,3.73,0,0,1-1.54,1.37l-.31-.39a3.31,3.31,0,0,0,1.4-1.19,4.36,4.36,0,0,0,.46-2h-1.32v-.47Zm-.12-1.58h-.48V82.64H217.1V83.9h-.47V82.17h2.1a7,7,0,0,0-.36-.82l.51-.09c.12.27.23.58.34.91h2.09Zm-.63,0v.44h-3.42v-.44Z"/><path class="cls-6" d="M135,103v-.45h1.67v-1.06h-1.52v-.45h.81a6.61,6.61,0,0,0-.49-1.22l.43-.16a7.06,7.06,0,0,1,.5,1.38h1a9.49,9.49,0,0,0,.52-1.42l.45.16a8.88,8.88,0,0,1-.52,1.26h.8v.45h-1.52v1.06h1.69V103h-1.69v.47a15.76,15.76,0,0,1,1.51,1.07l-.27.39a16,16,0,0,0-1.24-1v2.24h-.46v-2.58a6.12,6.12,0,0,1-1.49,1.86l-.27-.38a5.36,5.36,0,0,0,1.67-2Zm1.72-4.12c-.11-.32-.23-.62-.35-.89l.48-.09a8.56,8.56,0,0,1,.34,1h1.58v.47H135v-.47Zm6.07-.38a9.94,9.94,0,0,1-2.79.55v1.79h3.1v.46H142v4.82h-.48v-4.82H140v1.21a6.81,6.81,0,0,1-1,3.58l-.36-.37a6.1,6.1,0,0,0,.83-3.21V98.67a8.66,8.66,0,0,0,3-.58Z"/><path class="cls-6" d="M148.41,98v3.43h3.66v.48h-2.65V105c0,.29.13.43.42.43H151a.6.6,0,0,0,.5-.2,3.36,3.36,0,0,0,.25-1.46l.48.16a3.39,3.39,0,0,1-.38,1.7,1,1,0,0,1-.76.26H149.7a.69.69,0,0,1-.77-.79v-3.28h-1.65v.08a4.91,4.91,0,0,1-.71,2.71,4.45,4.45,0,0,1-2.22,1.48l-.27-.42a4.28,4.28,0,0,0,2.12-1.4,4.71,4.71,0,0,0,.59-2.37v-.08h-2.52v-.48h3.65V98Zm-1.67,2.61-.46.24a14.82,14.82,0,0,0-1.3-2.1l.46-.23A17.2,17.2,0,0,1,146.74,100.56Zm4.63-1.94a11.62,11.62,0,0,1-1.23,2.18l-.45-.24a13.2,13.2,0,0,0,1.22-2.16Z"/><path class="cls-6" d="M161.45,105.17v.49h-8.1v-.49Zm-.66-6.48v.48H154v-.48Zm-.62,3.12v.49h-5.54v-.49Z"/><path class="cls-6" d="M164.33,99.2V98h.48V99.2h1.31v.45h-1.31V101h1.38v.45h-1.28v1.34h1v.45h-1v1.92a.66.66,0,0,0,.19.09,12.45,12.45,0,0,0,3.61.32c.89,0,1.56,0,2,0l-.09.5h-1.81a12,12,0,0,1-4-.4,3.29,3.29,0,0,1-1.33-1.38,9.25,9.25,0,0,1-.57,1.93l-.37-.34a10.57,10.57,0,0,0,.72-3.68l.43,0c0,.48,0,.94-.1,1.37a4,4,0,0,0,.88,1.26v-3.39h-1.79V101h1.68V99.65h-1.44V99.2Zm4.84,5-.16-.31a5.42,5.42,0,0,1-1.19,1.2l-.26-.38a5.56,5.56,0,0,0,1.27-1.33,9.8,9.8,0,0,1-.32-1.27,14.37,14.37,0,0,1-.23-2.26H167v3.81a9.24,9.24,0,0,0,1.09-.69l.08.42a15.66,15.66,0,0,1-1.65,1l-.12-.44a.33.33,0,0,0,.16-.31V99.37h1.67c0-.45,0-.91,0-1.41h.47c0,.5,0,1,0,1.41h1.86v.43h-1.85a20.11,20.11,0,0,0,.18,2c.06.37.13.7.2,1a9.32,9.32,0,0,0,.83-2.29l.4.18a9.18,9.18,0,0,1-1.06,2.71c0,.11.09.22.13.32.2.4.38.59.54.59s.26-.36.41-1.07l.37.23c-.2.89-.45,1.34-.73,1.34S169.44,104.61,169.17,104.15ZM170.42,99l-.33.23a11.69,11.69,0,0,0-.89-1l.34-.19A8.74,8.74,0,0,1,170.42,99Z"/><path class="cls-6" d="M87.37,60.53a7.54,7.54,0,0,0-.5-1.1l.52-.09a9.29,9.29,0,0,1,.46,1.19h3.74V61H87.87v1.33h2.94v3.2c0,.53-.25.79-.75.79h-.89L89,65.86l.87,0a.39.39,0,0,0,.42-.44V62.8H87.87v4.83h-.48V62.8H85v3.58h-.47v-4h2.82V61H83.67v-.48Z"/><path class="cls-6" d="M95.46,60.68v.45H92.85v-.45Zm-1.93,7h-.46v-3.1h2.21v3h-.45V67h-1.3ZM95.22,62v.43H93.13V62Zm0,1.27v.43H93.13v-.43ZM94.83,65h-1.3v1.61h1.3Zm-.35-4.52-.41.15a7.19,7.19,0,0,0-.48-1.06l.46-.13A10.09,10.09,0,0,1,94.48,60.46Zm2.35,3.93v-.65a8.14,8.14,0,0,1-1,.06l-.12-.37A6.33,6.33,0,0,0,98,63.08l.2.35a3.89,3.89,0,0,1-.91.25v.71h1.39c0-.38,0-.8,0-1.25h.43c0,.46,0,.87,0,1.25h1.64v.4H99.12a6.72,6.72,0,0,0,.21,1.37,4.43,4.43,0,0,0,.92-1.07l.32.24a4.89,4.89,0,0,1-1.09,1.22c.2.41.43.62.68.64s.32-.33.45-1l.35.23a3.39,3.39,0,0,1-.37.94.55.55,0,0,1-.43.25c-.4,0-.74-.27-1-.81a6.66,6.66,0,0,1-1.22.62L97.74,67a5.86,5.86,0,0,0,1.23-.6,6.82,6.82,0,0,1-.28-1.65H97.27v.87a6.25,6.25,0,0,0,1-.24v.38a9.92,9.92,0,0,1-1,.26V67c0,.42-.23.64-.69.64h-.73l-.09-.41.68,0c.26,0,.39-.13.39-.36v-.71l-1.12.14-.08-.43c.44,0,.83-.06,1.2-.12v-.94H95.67v-.4Zm.27-4.13a3.76,3.76,0,0,0-.47-.68l.43-.16a4.17,4.17,0,0,1,.52.84h1.23a6.63,6.63,0,0,0,.53-.88l.45.16a5.63,5.63,0,0,1-.48.72h1.43v.39h-2.3v.63h1.92v.39H98.44v.66h2.37v.39h-5v-.39H98v-.66H96.11v-.39H98v-.63H95.75v-.39Zm3.68,3.47-.2.32a5,5,0,0,0-1.13-.61l.21-.32A5.24,5.24,0,0,1,100.78,63.73Z"/><path class="cls-6" d="M102.29,62.08,102,61.7a12,12,0,0,0,3.89-2.24h.34a9.88,9.88,0,0,0,3.89,2.24l-.26.38a12.29,12.29,0,0,1-2.06-.94v.25h-3.49V61.1A14.36,14.36,0,0,1,102.29,62.08Zm6.92-.11v2.21H103V62Zm-.34,5.7h-.47V67.3h-4.62v.38h-.46v-3h5.55Zm-3-5.31h-2.43v1.43h2.43Zm2.54,4.53V65.11h-4.62v.7h4.12v.36h-4.12v.72Zm-3.31-3.38-.35.09a5.7,5.7,0,0,0-.51-.94l.34-.11A4.39,4.39,0,0,1,105.09,63.51Zm1-3.65A13,13,0,0,1,104.51,61h3.09A8.57,8.57,0,0,1,106.09,59.86Zm2.66,2.5h-2.43v1.43h2.43Zm-.8.28a3.88,3.88,0,0,1-.55,1l-.34-.13a3.78,3.78,0,0,0,.53-.92Z"/><path class="cls-6" d="M86.71,99.09a7.44,7.44,0,0,0-.49-1.1l.51-.09a11,11,0,0,1,.47,1.19h3.74v.48H87.22v1.33h2.93v3.21q0,.78-.75.78h-.89l-.13-.47.86,0a.39.39,0,0,0,.43-.44v-2.64H87.22v4.84h-.49v-4.84H84.39v3.58h-.48v-4h2.82V99.57H83v-.48Z"/><path class="cls-6" d="M96.12,98.86v.48H94.69v2.1h1.1v.47h-1.1v2.57q.74-.21,1.41-.45v.45a30.81,30.81,0,0,1-3.89,1.1l-.12-.46.65-.13v-4.31h.45v4.2l1-.26V99.34H92.34v-.48Zm-.12,3.8-.29-.36A11.45,11.45,0,0,0,97.17,98l.49.05a12.39,12.39,0,0,1-.31,1.5h2.83V100h-.73a7.19,7.19,0,0,1-1.12,4,5.91,5.91,0,0,0,2.07,1.86l-.29.41A5.77,5.77,0,0,1,98,104.35a6.6,6.6,0,0,1-2.45,1.85l-.3-.38a6,6,0,0,0,2.48-1.88,10.47,10.47,0,0,1-1-2.51l.37-.22a9.38,9.38,0,0,0,1,2.31A6.94,6.94,0,0,0,99,100H97.22A10.5,10.5,0,0,1,96,102.66Z"/><path class="cls-6" d="M109.3,99.24h-6.58v2.27a9.39,9.39,0,0,1-1.11,4.69l-.37-.34a8.79,8.79,0,0,0,1-4.35V98.78h3.35a5.38,5.38,0,0,0-.37-.76l.52-.09a6.23,6.23,0,0,1,.35.85h3.21Zm-4.21.58a8.51,8.51,0,0,1-.56,1.48v4.87h-.48v-4a9.58,9.58,0,0,1-.88,1.16l-.16-.52a8.44,8.44,0,0,0,1.61-3.08Zm2.88,1.4V99.86h.48v1.36h1v.46h-1v3.68c0,.52-.25.78-.74.78H106.5l-.11-.47,1.15,0c.29,0,.43-.16.43-.47v-3.55h-2.7v-.46Zm-.84,3-.37.26a15.13,15.13,0,0,0-1.35-1.74l.38-.23A13.7,13.7,0,0,1,107.13,104.26Z"/><path class="cls-4" d="M245.41,154a1.86,1.86,0,0,1-1.87-1.85V2.34a1.87,1.87,0,0,1,3.73,0v149.8A1.86,1.86,0,0,1,245.41,154Z"/><path class="cls-4" d="M281.76,155.85A1.86,1.86,0,0,1,279.9,154V2.36a1.87,1.87,0,0,1,3.73,0V154A1.87,1.87,0,0,1,281.76,155.85Z"/><path class="cls-4" d="M245.41,87.51h0a6,6,0,0,1-6-6V22a6,6,0,0,1,6-6h0a6,6,0,0,1,6,6V81.49A6,6,0,0,1,245.41,87.51Z"/><path class="cls-6" d="M245.64,26.73v1.51h2.94V32h-.45v-.54h-2.49v2.81h-.46V31.43H242.7V32h-.45V28.24h2.93V26.73ZM245.18,31V28.67H242.7V31Zm2.95,0V28.67h-2.49V31Z"/><path class="cls-6" d="M245.56,38.51v2.36h-1.33v.65H246v.4h-1.79v1h-.42v-1h-2v-.4h2v-.65h-1.43V38.51Zm-1.8-2.32a6.34,6.34,0,0,0-.25-.67l.44-.08q.12.33.24.75h1.66v.38h-.72a7.26,7.26,0,0,1-.27.94H246v.38h-4.12v-.38h1.2a8.7,8.7,0,0,0-.3-.94h-.7v-.38Zm1.39,3.35v-.67h-2.36v.67Zm0,.34h-2.36v.63h2.36Zm-.44-3.31H243.2c.1.28.2.6.29.94h.95A4.39,4.39,0,0,0,244.71,36.57Zm4.4,3.62a9.34,9.34,0,0,1-2.81,2.68l-.21-.41a8.38,8.38,0,0,0,2.74-2.59Zm-.57-4.38a6.89,6.89,0,0,1-2.16,1.92l-.2-.41a6.36,6.36,0,0,0,2.07-1.82Zm.33,2.18a7.65,7.65,0,0,1-2.31,2.06l-.21-.42a6.47,6.47,0,0,0,2.23-2Z"/><path class="cls-6" d="M242.39,45.83a10.36,10.36,0,0,1-.32,2.27l-.36-.1a9.27,9.27,0,0,0,.32-2.2Zm1-1.56v7.36h-.44V44.27Zm1.22,3.14-.36.09a13.83,13.83,0,0,0-.59-1.75l.34-.11A13.46,13.46,0,0,1,244.57,47.41Zm1.56-1.87V44.26h.43v1.28h1.73V48H249v.44h-2.6a4.6,4.6,0,0,1-2.26,3.18l-.28-.36a4.08,4.08,0,0,0,2.1-2.82h-1.65V48H246a8.77,8.77,0,0,0,.1-1.29V46h-1.49v-.41Zm.43,1.08a10.06,10.06,0,0,1-.1,1.38h1.4V46h-1.3Zm.24,2.58.28-.28a16.17,16.17,0,0,1,2.06,2.42l-.32.31A17.71,17.71,0,0,0,246.8,49.2Z"/><path class="cls-6" d="M243.64,55.06v.35a12.5,12.5,0,0,1-1.06,1.51h1.14v.3a8.17,8.17,0,0,1-.53,1.72,2.39,2.39,0,0,1,.22.16,2.68,2.68,0,0,0,.81.56,3.37,3.37,0,0,0,1.17.17h1.54l2.18,0-.1.42h-3.66A3.84,3.84,0,0,1,244,60a3,3,0,0,1-.93-.63.29.29,0,0,0-.2-.08c-.21,0-.5.36-.85,1.09l-.32-.29c.36-.73.71-1.13,1-1.21a8.36,8.36,0,0,0,.52-1.58h-1.26V57a12.7,12.7,0,0,0,1.1-1.5h-1.32v-.4Zm0-.81-.29.3a8.39,8.39,0,0,0-1.24-1.17l.3-.29A9.26,9.26,0,0,1,243.63,54.25Zm2.73-.55V53h.42v.71h2.08v.41h-2.08v.81h1.8v2h-1.52a14.31,14.31,0,0,1,1.89,1.8l-.3.3a14.19,14.19,0,0,0-1.87-1.82v2.28h-.42V57a5.06,5.06,0,0,1-2.06,2l-.27-.35a4.56,4.56,0,0,0,2-1.76h-1.47v-2h1.8v-.81h-2.12V53.7Zm0,1.6H245v1.2h1.39Zm1.8,0h-1.38v1.2h1.38Z"/><path class="cls-6" d="M243.62,63.8v.35a11.47,11.47,0,0,1-1.06,1.51h1.17V66a8.22,8.22,0,0,1-.49,1.71.85.85,0,0,1,.25.17,2.89,2.89,0,0,0,.82.59,3.66,3.66,0,0,0,1.18.18h1.57l2.05,0L249,69h-3.56a3.64,3.64,0,0,1-1.32-.23,2.94,2.94,0,0,1-.94-.65A.37.37,0,0,0,243,68c-.22,0-.53.37-.91,1.1l-.32-.29c.39-.74.75-1.14,1.1-1.22a7.48,7.48,0,0,0,.47-1.57H242V65.7a11.66,11.66,0,0,0,1.1-1.5h-1.3v-.4Zm0-.79-.29.29a9.1,9.1,0,0,0-1.25-1.19l.29-.28A9.56,9.56,0,0,1,243.59,63Zm1.89-.28a5.26,5.26,0,0,0-.57-.85l.4-.16a4.68,4.68,0,0,1,.62,1H247a6.49,6.49,0,0,0,.63-1l.42.15a5.58,5.58,0,0,1-.58.9H249v.4h-2.36a4.86,4.86,0,0,1-.26.76h2v3.9h-3.66v-3.9h1.19a3.11,3.11,0,0,0,.26-.76h-2.12v-.4ZM248,65.08v-.8h-2.83v.8Zm0,1.15v-.79h-2.83v.79Zm0,.37h-2.83v.8H248Z"/><path class="cls-6" d="M244.53,70.83v2.44h-.83V74.7h.91v.42h-.91v1.7c.39-.12.75-.25,1.11-.38v.44a29.27,29.27,0,0,1-3,.89l-.12-.43.46-.11v-3h.4v2.94l.71-.19V73.27h-1.15V70.83Zm-.42.42h-1.54v1.6h1.54Zm2.49-.73a4.73,4.73,0,0,1-.25.66h2.1v.33a5.83,5.83,0,0,1-1.28,1.87,5.72,5.72,0,0,0,2,1.09l-.25.36a5.66,5.66,0,0,1-2.09-1.17,7.87,7.87,0,0,1-2,1.2l-.28-.36a8,8,0,0,0,2-1.14,5.62,5.62,0,0,1-.84-1.16,6.55,6.55,0,0,1-.75.74l-.27-.34a4.35,4.35,0,0,0,1.48-2.15Zm1.84,7.33H248v-.38h-2.26v.38h-.42V74.9h3.1Zm-.42-.79V75.31h-2.26v1.75Zm-1.17-4a5.55,5.55,0,0,0,1.12-1.5h-1.83l-.17.26A5.05,5.05,0,0,0,246.85,73.09Z"/><path class="cls-4" d="M281.76,142.61h0a6,6,0,0,1-6-6V87.22a6,6,0,0,1,6-6h0a6,6,0,0,1,6,6v49.37A6,6,0,0,1,281.76,142.61Z"/><path class="cls-6" d="M285.16,104.09h-.45v-.4H278.8v.4h-.44V96.87h6.8Zm-.45-.83v-6H278.8v6Zm-2.66-4.94c0-.25,0-.51,0-.78h.41c0,.27,0,.53,0,.78h.89a3.82,3.82,0,0,0-.34-.64l.38-.07a6,6,0,0,1,.31.71h.55v.41h-1.79a14.52,14.52,0,0,0,.17,1.82c0,.22.08.43.12.62a8.57,8.57,0,0,0,.75-1.88l.34.18a8.29,8.29,0,0,1-.94,2.21c0,.13.09.26.14.38.16.3.31.46.44.46s.33-.39.51-1.16l.35.19c-.24.92-.5,1.39-.81,1.39s-.48-.19-.71-.54c-.06-.12-.12-.24-.17-.36a4.24,4.24,0,0,1-1,.95l-.23-.34a4.06,4.06,0,0,0,1.06-1.05,7.27,7.27,0,0,1-.22-.84,14,14,0,0,1-.2-2h-2.73v-.41Zm-.44,3.73a21.34,21.34,0,0,1-2.22.37l-.05-.39a21.52,21.52,0,0,0,2.27-.35Zm-.08-2.63v1.72h-1.94V99.42Zm-.38.34H280v1h1.18Z"/><path class="cls-6" d="M279.92,107.57v.36a11.27,11.27,0,0,1-1.08,1.54H280v.31a8.77,8.77,0,0,1-.49,1.76.85.85,0,0,1,.25.17,2.83,2.83,0,0,0,.84.6,3.55,3.55,0,0,0,1.21.18h1.61l2.09,0-.1.43H283.5l-1.7,0a3.63,3.63,0,0,1-1.36-.23,2.9,2.9,0,0,1-1-.66.33.33,0,0,0-.22-.1c-.23,0-.55.38-.94,1.13l-.32-.29c.4-.76.77-1.18,1.13-1.26a7.77,7.77,0,0,0,.48-1.6H278.3v-.35a12.18,12.18,0,0,0,1.12-1.54h-1.33v-.41Zm0-.81-.3.3a8.47,8.47,0,0,0-1.28-1.22l.3-.28A9.37,9.37,0,0,1,279.89,106.76Zm1.94-.28a4.6,4.6,0,0,0-.59-.87l.42-.16a4.63,4.63,0,0,1,.63,1h1.12a6.19,6.19,0,0,0,.65-1.08l.43.16a5.22,5.22,0,0,1-.6.92h1.54v.41H283a4.46,4.46,0,0,1-.26.78h2v4h-3.74v-4h1.21a3.49,3.49,0,0,0,.28-.78h-2.17v-.41Zm2.54,2.4v-.81h-2.9v.81Zm0,1.18v-.81h-2.9v.81Zm0,.38h-2.9v.82h2.9Z"/><path class="cls-6" d="M285.48,117.9v.45H278v-.45Z"/><path class="cls-6" d="M280.86,126.49v.43h-1.69c-.08.38-.17.75-.27,1.08h1.58c0,1.55-.16,2.41-.43,2.61a2.09,2.09,0,0,1-1.25.25h-.13l-.13-.41h.27a1.54,1.54,0,0,0,.93-.18c.17-.13.27-.75.29-1.86h-1.67c.15-.57.28-1.07.37-1.5H278v-.43Zm-.26-2.77v2.12h-2.3v-2.12Zm-.42.38h-1.46v1.35h1.46Zm3.22-.79v.56h1.78v.39H283.4V125h1.93v.22a7.06,7.06,0,0,1-.35,1.19l-.41-.12a6.46,6.46,0,0,0,.31-.88h-1.49v.85l1-.14.06.39-1.09.15v.53a.26.26,0,0,0,.3.29h1.46v.39h-1.56c-.43,0-.63-.2-.63-.6v-.55l-.88.13-.07-.39.95-.14v-.91h-1.28v2a8.13,8.13,0,0,1-.76,3.62l-.35-.31a7.54,7.54,0,0,0,.68-3.28V125H283v-1.64Zm-.44,4.81A3.74,3.74,0,0,1,282,131l-.35-.27a3.27,3.27,0,0,0,.85-2.58Zm1.45,2.69c-.45,0-.66-.2-.66-.58v-2.1h.42v2c0,.14.07.22.24.23h.35a.28.28,0,0,0,.28-.24,5.74,5.74,0,0,0,0-1l.39.14a3.22,3.22,0,0,1-.14,1.24.61.61,0,0,1-.56.25Z"/><path class="cls-6" d="M202.87,63h-2.42v4.19h-1.62V56.54h4a3.24,3.24,0,1,1,0,6.46Zm-.09-5h-2.33v3.54h2.33a1.77,1.77,0,1,0,0-3.54Z"/><path class="cls-6" d="M147.57,21.66a7,7,0,0,0-.73,1.6,6.08,6.08,0,0,0,0,4,7.4,7.4,0,0,0,.73,1.6H147a6.56,6.56,0,0,1-.79-1.59,6.14,6.14,0,0,1,0-4,6.38,6.38,0,0,1,.79-1.59Z"/><path class="cls-6" d="M154.53,26.11v1.4h-.95l-.42.67h2.16v.46h-6.86v-.46h2.09l-.38-.67h-.92v-1.4Zm.68-.84v.44h-6.64v-.44Zm-.9-3.22h.53v2.83h-5.9V22.05h.52v2.43h.87V24h-.6v-.33h.6v-.38h-.6V23h.6v-.38h-.6v-.32h.6v-.44h.45v.44h.59v.32h-.59V23h.59v.33h-.59v.38h.59V24h-.59v.49h.85V21.72h.51v2.76H153V24h-.57v-.33H153v-.38h-.57V23H153v-.38h-.57v-.32H153v-.44h.45v.44H154v.32h-.58V23H154v.33h-.58v.38H154V24h-.58v.49h.87ZM154,26.51h-4.23v.59H154Zm-1.41,1.67.42-.67h-2.27l.38.67Z"/><path class="cls-6" d="M162.36,26.7h-4.9v1a.42.42,0,0,0,.45.48h3.84a.79.79,0,0,0,.59-.22,2.05,2.05,0,0,0,.21-.8l.53.17a3.33,3.33,0,0,1-.23.93,1,1,0,0,1-.94.45H157.7c-.53,0-.79-.27-.79-.82V24.6h5.45ZM161.83,22V24h-4.47V22Zm-4.37,3.09v1.06h1.9V25.12Zm3.81-2.59h-3.35v.94h3.35Zm.53,3.65V25.12h-1.9v1.06Z"/><path class="cls-6" d="M167,22.62a7.83,7.83,0,0,0-.4-.87l.6-.09c.12.29.24.61.37,1h3.16v.54h-3.14v1h2.51V27a.62.62,0,0,1-.7.7h-.77l-.14-.53.73,0a.28.28,0,0,0,.32-.32V24.7h-1.95v4.1H167V24.7h-1.86v3h-.55V24.17H167v-1H163.9v-.54Z"/><path class="cls-6" d="M175,22.43V23h-1.18v1.67h.89v.53h-.89v2l1.15-.37v.51a28.66,28.66,0,0,1-3.32.94l-.14-.51.51-.11V24h.52v3.5l.75-.2V23h-1.56v-.54Zm2,4.41a4.88,4.88,0,0,0,1.7,1.51l-.32.47a5,5,0,0,1-1.71-1.53,5.84,5.84,0,0,1-2,1.53l-.34-.46a5.11,5.11,0,0,0,2.08-1.54,8.54,8.54,0,0,1-.85-2,9.37,9.37,0,0,1-.55,1l-.31-.42a9.69,9.69,0,0,0,1.21-3.65l.55.06c-.07.42-.16.83-.25,1.22h2.36v.54h-.58A6.42,6.42,0,0,1,177,26.84Zm-1.44-2.15.36-.2a8,8,0,0,0,.76,1.85,6,6,0,0,0,.72-2.81H176A11.21,11.21,0,0,1,175.52,24.69Z"/><path class="cls-6" d="M180.92,28.82h-.53V25a9.44,9.44,0,0,1-1,2.13l-.24-.56a7.94,7.94,0,0,0,1.18-2.74h-1v-.53h1.06V21.74h.53v1.51h.91v.53h-.91v.51a16.85,16.85,0,0,1,1.13,1.44l-.31.47a15.13,15.13,0,0,0-.82-1.31Zm1-.06-.3-.48a6.89,6.89,0,0,0,4.08-3.42l.47.24a7.71,7.71,0,0,1-1.31,1.81,12.1,12.1,0,0,1,1.42,1.47l-.4.4a10.67,10.67,0,0,0-1.37-1.53A7.52,7.52,0,0,1,181.91,28.76ZM184,22.59a5,5,0,0,0-.37-.77l.57-.09a7.35,7.35,0,0,1,.34.86h1.71v.5H184.1a8,8,0,0,1-1.12,1.6l1.46-.1a6,6,0,0,0,.53-.88l.45.24a6.14,6.14,0,0,1-3.4,3.14l-.3-.47a5.63,5.63,0,0,0,2.35-1.55l-1.73.08-.12-.46.11,0a5.14,5.14,0,0,0,1.2-1.56H182v-.5Z"/><path class="cls-6" d="M188.34,24.29a14.94,14.94,0,0,1-.92,3.42l-.48-.3a14.28,14.28,0,0,0,.87-3.23Zm1.42,4.27q-.81,0-.81-.78V23.35h.56v4.32c0,.23.14.34.42.34h1.45a.4.4,0,0,0,.39-.22,5.16,5.16,0,0,0,.2-1.63l.53.18a4.91,4.91,0,0,1-.33,1.93.83.83,0,0,1-.69.29Zm1.88-4.82-.46.31a14.83,14.83,0,0,0-1.64-2l.47-.28A15.48,15.48,0,0,1,191.64,23.74Zm2.43,3.4-.51.23a22.83,22.83,0,0,0-1.32-3.25l.54-.18A23.48,23.48,0,0,1,194.07,27.14Z"/><path class="cls-6" d="M198.24,22.53v.52l-2,5h-.68l2.06-4.94h-3v-.58Z"/><path class="cls-6" d="M202.82,22.53v.55h-3v1.85h2.89v.55h-2.89v2.57h-.64V22.53Z"/><path class="cls-6" d="M204,21.66a7.64,7.64,0,0,1,.8,1.59,6.14,6.14,0,0,1,0,4,7.9,7.9,0,0,1-.8,1.59h-.54a7.4,7.4,0,0,0,.73-1.6,6.08,6.08,0,0,0,0-4,7,7,0,0,0-.73-1.6Z"/><path class="cls-6" d="M141.14,12.82c-.12.3-.28.62-.44.94v4.41h-.64V14.79c-.16.21-.31.42-.46.59a4.84,4.84,0,0,0-.37-.65,7,7,0,0,0,1.34-2.14ZM141,11.27a7.81,7.81,0,0,1-1.38,1.81,6.26,6.26,0,0,0-.34-.55A5.43,5.43,0,0,0,140.44,11ZM142.09,15c0,1.43-.14,2.46-.84,3.07a2,2,0,0,0-.42-.54c.55-.49.62-1.31.63-2.53Zm-1-.86h2.61v.57h-2.61Zm2.63-.45h-2.53v-2h.52v1.44h.47V11h.56v2.15h.44V11.74h.54Zm.21,2.34a3.17,3.17,0,0,0,.17.52,5,5,0,0,0-1.29.94,2.5,2.5,0,0,0-.27-.63.56.56,0,0,0,.24-.52V15h.6v1.35Zm2.21-3a11.06,11.06,0,0,1-.69,3.14,3.32,3.32,0,0,0,1.11,1.37,2.27,2.27,0,0,0-.43.54,3.65,3.65,0,0,1-1-1.24A4.15,4.15,0,0,1,144,18.2a3.39,3.39,0,0,0-.45-.49,3.9,3.9,0,0,0,1.26-1.54,10.74,10.74,0,0,1-.5-2,2.91,2.91,0,0,1-.25.42,3,3,0,0,0-.42-.57,7,7,0,0,0,1-3l.63.1c-.08.46-.17.92-.28,1.35h1.51v.61Zm-1.36,0a.75.75,0,0,1-.07.18,13.44,13.44,0,0,0,.42,2.1,11.82,11.82,0,0,0,.4-2.28Z"/><path class="cls-6" d="M149.52,15.9c-.1-.24-.33-.67-.54-1v3.33h-.69V15a8,8,0,0,1-.92,1.94,3.55,3.55,0,0,0-.34-.71,7.93,7.93,0,0,0,1.09-2.28h-1v-.68h1.14v-1.1l-.85.14a2.16,2.16,0,0,0-.2-.57,9.58,9.58,0,0,0,2.21-.62l.4.59a6.35,6.35,0,0,1-.87.28v1.28h.94v.68H149v.16c.21.25.82,1,1,1.25Zm4.73,1.46V18h-4.47v-.65h1.94v-.9H150.2v-.62h1.52V15l-1.29.09a1.9,1.9,0,0,0-.17-.56,16.77,16.77,0,0,0,3.12-.43l.46.54a11.25,11.25,0,0,1-1.4.27v.89h1.49v.62h-1.49v.9Zm-.4-3.42h-3.6V11.39h3.6Zm-.7-1.93h-2.22v1.31h2.22Z"/><path class="cls-6" d="M159.79,13.12c.17,2.45.71,4.31,1.39,4.31.19,0,.28-.42.33-1.43a1.94,1.94,0,0,0,.64.41c-.12,1.4-.38,1.79-1,1.79-1.29,0-1.9-2.27-2.1-5.08h-4V12.4H159c0-.44,0-.89,0-1.35h.78c0,.46,0,.92,0,1.35H162v.72Zm-2.42,3.68c.51-.09,1-.2,1.57-.31l.05.65c-1.3.3-2.69.6-3.69.82l-.21-.73,1.55-.28V14.86h-1.3v-.71h3.39v.71h-1.36Zm3.25-5.75a6.45,6.45,0,0,1,1.09.9l-.51.45a6.68,6.68,0,0,0-1-1Z"/><path class="cls-6" d="M167.61,12.19a1.21,1.21,0,0,1,0,.18,3.57,3.57,0,0,0,2.28.76,2.24,2.24,0,0,0-.39.59,3.71,3.71,0,0,1-2.09-.86,3.36,3.36,0,0,1-2.24.89,1.79,1.79,0,0,0-.37-.54h-2v-.57h2.27v.51c1.69-.21,1.87-.65,1.87-1v-.1h-.65a3.93,3.93,0,0,1-.57.73,3.3,3.3,0,0,0-.55-.37,3.16,3.16,0,0,0,.9-1.44l.65.14c0,.14-.09.26-.15.4H169l.1,0,.5.17a7.59,7.59,0,0,1-.68,1.15l-.57-.2a5.85,5.85,0,0,0,.33-.54h-1.09Zm-.06,4.73a19,19,0,0,1,2.2.85l-.65.4a16.15,16.15,0,0,0-2.1-.89l.45-.36h-2.34l.65.29a10.42,10.42,0,0,1-2.39,1,6.82,6.82,0,0,0-.53-.55,8.42,8.42,0,0,0,2.24-.72h-1.25V13.78h5.09v3.14ZM164.89,12H163v-.55h1.91Zm-.36,2.69h3.66v-.44h-3.66Zm0,.88h3.66v-.44h-3.66Zm0,.9h3.66V16h-3.66Z"/><path class="cls-6" d="M173.4,12.9h-2.8v-.58h1.33a8.62,8.62,0,0,0-.53-1.05l.52-.29a8.53,8.53,0,0,1,.54,1l-.52.32h1.46Zm-2.49,1v-.57h2.21v.57Zm0,.46h2.22V15h-2.22Zm2.22,3.34h-1.65v.35h-.57V15.44h2.22ZM171.48,16v1.11h1.07V16Zm5.45-4.59c-.05,2.89-.06,5.79.3,5.9a3.08,3.08,0,0,0,.13-1,3.87,3.87,0,0,0,.4.56c-.1,1.11-.42,1.36-.82,1.18-.76-.26-.74-2.88-.74-5.94h-1.15v2.21H176V15h-.91v3.18h-.68V15h-1v-.67h1V12.12h-.87v-.68Z"/><path class="cls-6" d="M190.06,12.09h-2.18v-.61h2.18V11h.71v1.43h-.71Zm-2.12,2.52h6.74v1.32H194v-.76h-3.34l.64.13a2.84,2.84,0,0,1-.24.26H193l.12,0,.47.28c-.93,1.47-3.05,2.1-5.14,2.35a2.53,2.53,0,0,0-.31-.64,11.43,11.43,0,0,0,2.54-.47,6.29,6.29,0,0,0-.91-.67c-.18.08-.39.15-.61.23a2.37,2.37,0,0,0-.43-.51,3.87,3.87,0,0,0,1.84-.93h-1.92v.76h-.68Zm.63-2h5.58v1.65h-5.58Zm.65,1.16h1v-.67h-1Zm1.12,2.29,0,0a5.79,5.79,0,0,1,1,.72,3.84,3.84,0,0,0,1.2-.75Zm.47-2.29h1v-.67h-1Zm3.91-2.3v.61h-2.16v.36h-.72V11h.72v.46Zm-2.28,2.3h1v-.67h-1Z"/><path class="cls-6" d="M198.42,16.87c-.16-.14-.44-.38-.72-.6v1.84H197V16.43a4.79,4.79,0,0,1-1.21,1.21,4.39,4.39,0,0,0-.31-.66A4.56,4.56,0,0,0,197,15.57h-1.19v-.64H197v-.78h.69v.78h1.18v.64H197.7v0c.31.18,1.06.72,1.26.87Zm.31-4.22A6.8,6.8,0,0,1,196,14.42a3.26,3.26,0,0,0-.46-.58,6.25,6.25,0,0,0,2.57-1.41h-2.22v-.64h2.86V11h.72v.78h2.89v.64h-2.27c.84.4,2.1,1,2.43,1.23l-.23.68c-.58-.37-2-1.22-2.82-1.65v1.75h-.72Zm2.4,2.94a5.93,5.93,0,0,0,1.65,1.49,3.46,3.46,0,0,0-.51.57A6.51,6.51,0,0,1,201,16.34v1.84h-.69v-1.8a5.78,5.78,0,0,1-1.49,1.3,2.48,2.48,0,0,0-.45-.52,4.93,4.93,0,0,0,1.83-1.57h-1.09V15h1.2v-.81H201V15h1.45v.63Z"/><path class="cls-6" d="M206.25,15.5c-.17-.28-.49-.74-.77-1.12v3.79h-.71V14.68a7.52,7.52,0,0,1-1.14,2.12,4.28,4.28,0,0,0-.38-.7,7.48,7.48,0,0,0,1.4-2.76h-1.2v-.69h1.32V11h.71v1.64h1.06v.69h-1.06v.16c.25.23,1.05,1.15,1.23,1.37Zm2.83-2.16a8.21,8.21,0,0,0,1.5,3,3.36,3.36,0,0,0-.56.57,8.65,8.65,0,0,1-1.11-2.28v3.55h-.73v-3.5a7.75,7.75,0,0,1-1.48,2.39,3.51,3.51,0,0,0-.42-.66,7.52,7.52,0,0,0,1.77-3.06h-1.21v-.69h1.34V11h.73v1.64h1.43v.69Z"/><rect class="cls-6" x="182.26" y="10.78" width="0.42" height="7.72" transform="translate(43.09 133.31) rotate(-45)"/><rect class="cls-6" x="178.6" y="14.43" width="7.72" height="0.42" transform="translate(43.27 133.52) rotate(-45.09)"/></svg>