<?xml version="1.0" encoding="UTF-8" ?>
<!DOCTYPE svg PUBLIC "-//W3C//DTD SVG 1.1//EN" "http://www.w3.org/Graphics/SVG/1.1/DTD/svg11.dtd">
<svg width="700pt" height="700pt" viewBox="0 0 700 700" version="1.1" xmlns="http://www.w3.org/2000/svg">
<path fill="#ffffff" stroke="#ffffff" stroke-width="0.09375" opacity="1.00" d=" M 306.4 18.4 C 316.8 15.8 327.4 14.2 338.0 13.0 C 346.0 13.0 354.0 13.0 362.0 13.0 C 363.8 12.8 365.3 13.9 367.1 14.0 C 374.4 13.9 381.5 16.0 388.8 17.2 C 404.8 21.3 420.8 26.4 435.2 34.8 C 447.7 42.3 459.6 50.8 469.8 61.2 C 472.0 62.6 474.2 64.2 475.6 66.4 C 478.2 70.7 482.8 73.3 485.4 77.6 C 494.3 88.4 502.4 100.0 508.3 112.7 C 512.2 119.7 514.0 127.7 517.1 135.1 C 520.8 135.1 524.7 134.4 528.2 135.9 C 531.9 136.4 535.8 135.3 539.4 136.6 C 553.9 138.2 568.1 142.0 581.7 147.3 C 587.5 149.2 592.5 152.8 598.3 154.7 C 604.0 158.0 609.5 161.5 615.2 164.8 C 620.1 168.1 624.7 172.0 629.6 175.4 C 633.2 178.1 635.7 182.1 639.6 184.4 C 641.2 185.5 642.5 186.8 643.6 188.4 C 646.2 192.7 650.6 195.4 653.6 199.4 C 657.8 205.5 662.9 211.0 666.4 217.6 C 668.4 220.9 670.4 224.2 672.6 227.4 C 674.7 233.3 678.1 238.7 680.6 244.4 C 685.6 256.7 689.0 269.6 691.4 282.6 C 692.5 285.7 691.4 289.1 692.9 292.2 C 693.3 295.7 692.7 299.3 693.1 302.8 C 694.6 306.4 693.8 310.3 694.0 314.0 C 693.8 317.7 694.6 321.6 693.1 325.2 C 693.2 335.1 690.6 344.7 688.2 354.2 C 684.1 369.8 677.2 384.4 669.6 398.6 C 665.8 403.9 663.0 409.8 658.8 414.9 C 655.6 419.3 652.2 423.6 648.8 427.8 C 642.7 433.4 637.5 439.9 630.8 444.8 C 627.7 447.5 624.2 449.7 621.0 452.2 C 621.0 453.5 621.0 454.7 621.0 455.9 C 624.1 467.3 627.6 478.9 628.1 490.8 C 628.7 492.5 629.1 494.2 629.0 496.0 C 628.9 505.2 629.2 514.5 628.9 523.8 C 628.0 525.8 627.9 527.9 628.0 530.0 C 625.5 548.1 620.4 565.9 612.4 582.4 C 611.5 585.3 610.2 588.0 608.4 590.4 C 601.6 603.4 592.9 615.3 583.3 626.3 C 578.7 630.7 574.3 635.3 569.7 639.7 C 564.6 643.6 559.7 647.8 554.6 651.6 C 549.5 654.3 544.9 657.9 540.0 661.0 C 530.5 665.8 521.0 670.7 510.9 673.9 C 500.7 678.0 490.1 681.0 479.2 682.2 C 475.2 683.9 470.8 682.1 466.8 683.9 C 460.0 684.1 453.1 684.1 446.2 683.9 C 442.2 682.0 437.7 683.9 433.6 682.4 C 406.2 679.0 378.9 669.9 356.3 653.7 C 353.8 652.0 350.9 648.4 347.7 650.6 C 336.5 658.1 325.0 665.5 312.3 670.3 C 297.6 676.4 282.1 680.7 266.4 682.4 C 263.1 683.6 259.5 682.7 256.1 683.0 C 250.6 684.7 244.8 683.9 239.2 683.9 C 234.9 681.9 230.0 684.0 225.6 682.4 C 205.1 680.1 184.9 674.1 166.7 664.3 C 153.3 658.2 141.5 649.1 130.2 639.8 C 125.3 634.7 120.3 629.7 115.2 624.8 C 105.8 613.4 96.0 601.9 89.7 588.3 C 80.7 571.3 75.6 552.5 72.4 533.6 C 71.6 531.0 72.5 528.1 71.4 525.6 C 70.3 521.4 71.9 516.9 70.1 512.8 C 70.1 508.2 69.3 503.3 70.9 498.8 C 71.5 494.8 70.3 490.5 71.6 486.6 C 72.8 477.2 74.5 467.8 77.9 458.9 C 78.7 456.8 79.5 454.6 78.9 452.4 C 74.4 447.4 68.2 444.3 63.7 439.3 C 57.6 432.7 50.6 427.0 45.2 419.8 C 40.1 414.4 36.4 407.9 32.2 401.8 C 19.1 380.5 10.5 356.2 7.6 331.4 C 6.2 327.7 7.9 323.5 6.1 319.8 C 6.2 312.5 5.1 305.0 7.0 297.9 C 7.2 294.8 6.5 291.6 7.6 288.6 C 10.3 266.5 17.7 245.0 28.4 225.4 C 31.3 221.2 33.3 216.5 36.6 212.6 C 39.8 208.1 42.4 203.2 46.2 199.1 C 48.6 195.0 52.9 192.5 55.4 188.4 C 56.9 185.9 59.4 184.4 61.7 182.7 C 70.5 173.5 81.4 166.8 92.0 160.0 C 98.0 156.9 103.5 153.1 109.9 150.9 C 116.7 147.9 123.5 144.9 130.6 142.6 C 139.3 140.4 147.8 137.3 156.8 136.8 C 159.4 135.7 162.2 136.1 164.9 136.0 C 170.7 134.2 176.9 135.2 182.9 135.0 C 186.0 127.5 188.4 119.6 192.3 112.3 C 198.3 99.7 206.2 87.9 215.0 77.0 C 216.8 74.2 219.6 72.2 221.7 69.7 C 224.8 65.3 228.7 61.2 233.2 58.2 C 240.7 50.8 249.5 45.1 258.2 39.2 C 273.2 30.1 289.4 22.8 306.4 18.4 M 318.2 47.4 C 261.3 59.8 214.1 110.4 207.6 168.7 C 195.5 167.1 183.2 165.9 170.9 167.0 C 129.7 169.9 90.3 191.6 66.0 225.0 C 52.2 243.2 43.6 264.9 39.6 287.2 C 28.3 348.2 62.7 414.4 119.2 440.1 C 117.8 443.9 115.9 447.4 114.1 451.1 C 103.0 476.6 99.4 505.3 104.2 532.8 C 108.5 558.1 119.7 582.2 136.3 601.7 C 152.7 621.1 174.5 635.9 198.3 644.8 C 238.4 658.7 284.5 653.6 320.8 631.8 C 331.7 625.5 341.2 617.1 350.0 608.3 C 352.7 609.5 354.5 612.3 356.8 614.2 C 374.4 630.6 396.3 642.4 419.7 648.2 C 449.1 655.5 480.7 653.3 508.7 641.8 C 532.1 632.2 552.8 616.3 568.6 596.6 C 602.5 552.8 608.4 488.6 581.1 440.2 C 597.2 432.1 612.0 421.5 624.3 408.3 C 636.6 394.8 646.5 379.1 653.0 362.0 C 663.4 335.2 665.3 305.3 658.8 277.4 C 652.3 251.4 639.5 226.5 620.0 208.0 C 589.3 178.1 545.1 161.9 502.3 167.3 C 499.2 167.5 495.8 169.1 492.8 168.3 C 491.2 161.5 490.5 154.4 488.2 147.7 C 475.7 103.0 439.7 65.9 395.6 51.5 C 370.8 43.0 343.8 42.2 318.2 47.4 Z" />
<path fill="#007a36" stroke="#007a36" stroke-width="0.09375" opacity="1.00" d=" M 318.2 47.4 C 343.8 42.2 370.8 43.0 395.6 51.5 C 439.7 65.9 475.7 103.0 488.2 147.7 C 490.5 154.4 491.2 161.5 492.8 168.3 C 495.8 169.1 499.2 167.5 502.3 167.3 C 545.1 161.9 589.3 178.1 620.0 208.0 C 639.5 226.5 652.3 251.4 658.8 277.4 C 665.3 305.3 663.4 335.2 653.0 362.0 C 646.5 379.1 636.6 394.8 624.3 408.3 C 612.0 421.5 597.2 432.1 581.1 440.2 C 608.4 488.6 602.5 552.8 568.6 596.6 C 552.8 616.3 532.1 632.2 508.7 641.8 C 480.7 653.3 449.1 655.5 419.7 648.2 C 396.3 642.4 374.4 630.6 356.8 614.2 C 354.5 612.3 352.7 609.5 350.0 608.3 C 341.2 617.1 331.7 625.5 320.8 631.8 C 284.5 653.6 238.4 658.7 198.3 644.8 C 174.5 635.9 152.7 621.1 136.3 601.7 C 119.7 582.2 108.5 558.1 104.2 532.8 C 99.4 505.3 103.0 476.6 114.1 451.1 C 115.9 447.4 117.8 443.9 119.2 440.1 C 62.7 414.4 28.3 348.2 39.6 287.2 C 43.6 264.9 52.2 243.2 66.0 225.0 C 90.3 191.6 129.7 169.9 170.9 167.0 C 183.2 165.9 195.5 167.1 207.6 168.7 C 214.1 110.4 261.3 59.8 318.2 47.4 M 320.3 80.3 C 298.6 86.4 278.7 99.1 264.4 116.4 C 241.5 143.5 232.7 181.7 241.9 216.0 C 239.2 214.9 236.7 213.3 234.2 211.9 C 221.4 205.1 207.4 200.7 193.0 199.3 C 154.1 195.0 113.6 213.0 91.1 245.1 C 71.5 271.8 64.9 307.5 73.7 339.4 C 81.8 370.7 104.5 397.6 133.6 411.5 C 146.7 417.4 160.7 421.4 175.1 422.1 C 167.9 428.6 160.8 435.4 155.3 443.4 C 132.4 474.6 127.8 518.0 143.6 553.4 C 151.7 572.1 165.2 588.4 181.9 600.1 C 213.5 622.7 257.1 626.7 292.3 610.3 C 318.5 598.6 339.5 576.3 350.1 549.7 C 351.1 551.2 351.9 552.7 352.6 554.4 C 366.8 587.1 397.9 611.7 432.9 618.2 C 455.2 622.7 478.9 620.0 499.7 610.7 C 517.2 602.9 532.8 590.6 544.2 575.1 C 565.8 546.3 572.1 506.7 560.1 472.7 C 555.0 456.1 545.0 441.3 532.9 429.1 C 530.7 426.6 527.8 424.7 525.8 422.0 C 531.3 421.4 536.9 420.9 542.4 419.6 C 577.8 412.3 608.5 386.5 622.0 353.0 C 636.8 318.0 631.8 275.4 609.2 244.8 C 596.6 227.4 578.9 213.8 558.9 206.1 C 541.6 199.4 522.6 197.4 504.2 199.4 C 488.0 201.8 472.3 207.6 458.3 216.0 C 462.3 200.7 463.0 184.5 460.3 168.9 C 456.0 143.5 442.5 119.8 422.9 103.1 C 395.3 79.2 355.4 70.2 320.3 80.3 Z" />
<path fill="#ffffff" stroke="#ffffff" stroke-width="0.09375" opacity="1.00" d=" M 320.3 80.3 C 355.4 70.2 395.3 79.2 422.9 103.1 C 442.5 119.8 456.0 143.5 460.3 168.9 C 463.0 184.5 462.3 200.7 458.3 216.0 C 472.3 207.6 488.0 201.8 504.2 199.4 C 522.6 197.4 541.6 199.4 558.9 206.1 C 578.9 213.8 596.6 227.4 609.2 244.8 C 631.8 275.4 636.8 318.0 622.0 353.0 C 608.5 386.5 577.8 412.3 542.4 419.6 C 536.9 420.9 531.3 421.4 525.8 422.0 C 527.8 424.7 530.7 426.6 532.9 429.1 C 545.0 441.3 555.0 456.1 560.1 472.7 C 572.1 506.7 565.8 546.3 544.2 575.1 C 532.8 590.6 517.2 602.9 499.7 610.7 C 478.9 620.0 455.2 622.7 432.9 618.2 C 397.9 611.7 366.8 587.1 352.6 554.4 C 351.9 552.7 351.1 551.2 350.1 549.7 C 339.5 576.3 318.5 598.6 292.3 610.3 C 257.1 626.7 213.5 622.7 181.9 600.1 C 165.2 588.4 151.7 572.1 143.6 553.4 C 127.8 518.0 132.4 474.6 155.3 443.4 C 160.8 435.4 167.9 428.6 175.1 422.1 C 160.7 421.4 146.7 417.4 133.6 411.5 C 104.5 397.6 81.8 370.7 73.7 339.4 C 64.9 307.5 71.5 271.8 91.1 245.1 C 113.6 213.0 154.1 195.0 193.0 199.3 C 207.4 200.7 221.4 205.1 234.2 211.9 C 236.7 213.3 239.2 214.9 241.9 216.0 C 232.7 181.7 241.5 143.5 264.4 116.4 C 278.7 99.1 298.6 86.4 320.3 80.3 M 332.3 244.2 C 329.9 249.8 326.8 255.2 323.1 260.1 C 318.8 265.7 312.3 269.1 306.0 272.2 C 305.8 288.3 305.7 304.5 306.1 320.6 C 313.9 320.4 321.6 320.5 329.3 320.6 C 329.4 374.4 329.5 428.2 329.3 482.0 C 336.5 482.6 343.8 482.1 351.0 482.3 C 359.9 482.1 368.8 482.7 377.6 481.9 C 377.4 458.0 377.6 434.0 377.5 410.0 C 377.6 354.7 377.4 299.4 377.6 244.1 C 362.5 243.9 347.4 243.9 332.3 244.2 Z" />
<path fill="#000000" stroke="#000000" stroke-width="0.09375" opacity="1.00" d=" M 332.3 244.2 C 347.4 243.9 362.5 243.9 377.6 244.1 C 377.4 299.4 377.6 354.7 377.5 410.0 C 377.6 434.0 377.4 458.0 377.6 481.9 C 368.8 482.7 359.9 482.1 351.0 482.3 C 343.8 482.1 336.5 482.6 329.3 482.0 C 329.5 428.2 329.4 374.4 329.3 320.6 C 321.6 320.5 313.9 320.4 306.1 320.6 C 305.7 304.5 305.8 288.3 306.0 272.2 C 312.3 269.1 318.8 265.7 323.1 260.1 C 326.8 255.2 329.9 249.8 332.3 244.2 Z" />
</svg>
